#N canvas 732 206 588 588 10;
#X obj 43 -477 gemhead;
#N canvas 393 101 566 527 random_pos 0;
#X obj 334 422 deg2rad;
#X obj 121 47 bng 15 250 50 0 empty empty empty 17 7 0 10 -262144 -1
-1;
#X obj 194 33 r \$0-num;
#X obj 149 65 repeat 3;
#X obj 225 91 r \$0-num;
#X obj 148 116 f;
#X obj 175 116 + 1;
#X obj 206 115 % 30;
#X obj 334 455 tabwrite phi_go;
#X obj 173 391 deg2rad;
#X obj 173 418 / 2;
#X obj 173 441 tabwrite theta_go;
#X obj 150 142 t f f f;
#X obj 279 279 t f f;
#X obj 167 193 tabread theta_go;
#X obj 279 192 tabread phi_go;
#X obj 167 170 t f f;
#X obj 167 269 t f b;
#X obj 167 347 +;
#X obj 336 292 t f b;
#X obj 336 370 +;
#X obj 167 216 rad2deg;
#X obj 326 238 rad2deg;
#X obj 167 241 * 2;
#X obj 120 25 metro 30;
#X obj 174 0 inlet;
#X obj 194 295 randomF 1;
#X obj 363 318 randomF 1;
#X obj 193 319 - 0.5;
#X obj 363 342 - 0.5;
#X connect 0 0 8 0;
#X connect 1 0 3 0;
#X connect 2 0 3 1;
#X connect 3 0 5 0;
#X connect 4 0 7 1;
#X connect 5 0 6 0;
#X connect 5 0 12 0;
#X connect 6 0 7 0;
#X connect 7 0 5 1;
#X connect 9 0 10 0;
#X connect 10 0 11 0;
#X connect 12 1 16 0;
#X connect 12 2 13 0;
#X connect 13 0 11 1;
#X connect 13 1 8 1;
#X connect 14 0 21 0;
#X connect 15 0 22 0;
#X connect 16 0 14 0;
#X connect 16 1 15 0;
#X connect 17 0 18 0;
#X connect 17 1 26 0;
#X connect 18 0 9 0;
#X connect 19 0 20 0;
#X connect 19 1 27 0;
#X connect 20 0 0 0;
#X connect 21 0 23 0;
#X connect 22 0 19 0;
#X connect 23 0 17 0;
#X connect 24 0 1 0;
#X connect 25 0 24 0;
#X connect 26 0 28 0;
#X connect 27 0 29 0;
#X connect 28 0 18 1;
#X connect 29 0 20 1;
#X restore 340 -39 pd random_pos;
#X obj 43 -347 GEMglEnd;
#X obj 94 -378 GEMglBegin;
#X obj 43 -378 t a a a;
#X obj 61 -30 GEMglVertex3f 0 0 0;
#X obj 167 -68 expr cos($f1);
#X obj 86 -136 t f f f;
#X obj 199 -171 t f f;
#X obj 138 -135 expr sin($f1)*sin($f2);
#X obj 86 -103 expr sin($f1)*cos($f2);
#X obj 125 -257 f;
#X obj 155 -256 + 1;
#X obj 141 -68 * 2;
#X obj 116 -68 * 2;
#X obj 86 -68 * 2;
#X obj 184 -256 % 100;
#X obj 339 -102 s \$0-num;
#X obj 118 -355 r \$0-num;
#N canvas 552 52 758 632 note 0;
#X obj 470 373 expr cos($f1);
#X obj 190 341 t f f f;
#X obj 348 339 t f f;
#X obj 332 373 expr sin($f1)*sin($f2);
#X obj 190 374 expr sin($f1)*cos($f2);
#X obj 228 193 f;
#X obj 258 194 + 1;
#X obj 245 409 * 2;
#X obj 220 409 * 2;
#X obj 190 409 * 2;
#X obj 287 194 % 100;
#X obj 235 54 r \$0-num;
#X obj 140 466 translateXYZ;
#X obj 173 274 separator;
#X obj 172 93 repeat 30;
#X obj 172 121 t a b;
#X obj 190 302 tabread theta_go;
#X obj 348 303 tabread phi_go;
#X obj 495 522 pack f f f;
#X msg 679 433 0;
#X obj 445 435 expr -1*sin($f1);
#X obj 556 437 expr 1*cos($f1);
#X obj 364 444 rad2deg;
#X obj 456 406 t f f b;
#X obj 172 54 separator;
#X obj 172 18 inlet;
#X obj 228 219 t f f;
#X obj 140 535 separator;
#X obj 39 562 separator;
#X obj 140 557 scale 0.5;
#X obj 224 20 color 1 0 0;
#X floatatom 302 100 5 0 0 0 - - -;
#X obj 140 592 text3d;
#X msg 232 493 2;
#X msg 35 415 text \$1;
#X obj 39 591 sphere 0.01 10;
#X obj 72 497 inlet;
#X obj 39 535 spigot;
#X obj 232 467 loadbang;
#X connect 0 0 7 0;
#X connect 1 0 4 0;
#X connect 1 1 3 0;
#X connect 1 2 0 0;
#X connect 1 2 22 0;
#X connect 2 0 4 1;
#X connect 2 1 3 1;
#X connect 2 1 23 0;
#X connect 3 0 8 0;
#X connect 4 0 9 0;
#X connect 5 0 6 0;
#X connect 5 0 34 0;
#X connect 5 0 26 0;
#X connect 6 0 10 0;
#X connect 7 0 12 3;
#X connect 8 0 12 2;
#X connect 9 0 12 1;
#X connect 10 0 5 1;
#X connect 11 0 10 1;
#X connect 11 0 14 1;
#X connect 11 0 31 0;
#X connect 12 0 37 0;
#X connect 13 0 12 0;
#X connect 14 0 15 0;
#X connect 15 0 13 0;
#X connect 15 1 5 0;
#X connect 16 0 1 0;
#X connect 17 0 2 0;
#X connect 19 0 18 2;
#X connect 20 0 18 0;
#X connect 21 0 18 1;
#X connect 23 0 20 0;
#X connect 23 1 21 0;
#X connect 23 2 19 0;
#X connect 24 0 14 0;
#X connect 25 0 30 0;
#X connect 26 0 16 0;
#X connect 26 1 17 0;
#X connect 27 0 29 0;
#X connect 28 0 35 0;
#X connect 29 0 32 0;
#X connect 30 0 24 0;
#X connect 33 0 32 1;
#X connect 34 0 32 0;
#X connect 36 0 37 1;
#X connect 37 0 28 0;
#X connect 38 0 33 0;
#X restore -11 -403 pd note;
#X obj 86 -175 tabread theta_go;
#X obj 199 -196 tabread phi_go;
#X obj 61 -323 repeat 100;
#N canvas 424 432 623 335 color 0;
#X obj 204 162 inlet;
#X obj 249 311 outlet;
#X obj 293 40 inlet;
#X obj 292 66 f 0;
#X obj 422 21 r \$0-num;
#X obj 353 65 % 100;
#X obj 370 197 tabread color;
#X obj 280 200 tabread color;
#X obj 370 166 + 0;
#X obj 280 178 + 1;
#X obj 291 96 t f f f f;
#X obj 249 268 GEMglColor4f 0 0 1 1;
#X obj 322 67 + 2;
#X obj 422 47 * 2;
#X connect 0 0 11 0;
#X connect 2 0 3 0;
#X connect 3 0 10 0;
#X connect 3 0 12 0;
#X connect 4 0 13 0;
#X connect 5 0 3 1;
#X connect 6 0 11 4;
#X connect 7 0 11 3;
#X connect 8 0 6 0;
#X connect 9 0 7 0;
#X connect 10 2 9 0;
#X connect 10 3 8 0;
#X connect 11 0 1 0;
#X connect 12 0 5 0;
#X connect 13 0 5 1;
#X restore 61 -228 pd color;
#X obj 61 -283 t a b======;
#X obj 43 -403 alpha;
#X obj 43 -427 separator;
#X obj 172 -220 t f f;
#X floatatom 264 -164 5 0 0 0 - - -;
#X floatatom 112 -154 5 0 0 0 - - -;
#N canvas 538 215 719 685 test_sphere 0;
#X obj 23 336 deg2rad;
#X obj 23 363 / 2;
#X obj 113 270 deg2rad;
#X obj 59 -28 bng 15 250 50 0 empty empty empty 17 7 0 10 -262144 -1
-1;
#X obj 59 -52 inlet;
#X obj 133 -39 r \$0-num;
#X obj 59 76 t b b;
#X obj 59 31 repeat 10;
#X obj 192 121 + 1;
#X obj 23 386 tabwrite theta_go;
#X obj 113 303 tabwrite phi_go;
#X obj 81 123 f 0;
#X obj 108 123 + 1;
#X obj -100 125 gemhead;
#X obj -100 197 translateXYZ;
#X obj 135 123 % 2;
#X obj 81 181 sel 0 1;
#X obj 193 148 t f f f f f f;
#X obj 59 54 repeat 2;
#X obj 133 -16 / 2;
#X obj 23 308 * 45;
#X floatatom 185 59 5 0 0 0 - - -;
#X obj -100 147 color 1 1 1 0.2;
#X obj -100 172 alpha;
#X obj 200 -31 inlet;
#X obj 59 -6 t b b;
#X msg -165 198 draw line;
#X obj 266 232 sel 0;
#X obj 293 255 + 1;
#X obj 266 255 f 0;
#X msg 317 106 0;
#X floatatom 266 278 5 0 0 0 - - -;
#X floatatom 23 188 5 0 0 0 - - -;
#X obj 23 246 / 2;
#X obj 23 269 i;
#X obj 185 35 expr 720/($f1-2);
#X obj 266 208 % 14;
#X obj -100 102 tgl 15 0 empty empty empty 17 7 0 10 -262144 -1 -1
0 1;
#X floatatom 133 6 5 0 0 0 - - -;
#X floatatom 185 -13 5 0 0 0 - - -;
#X obj 164 124 f 0;
#X obj 317 128 s \$0-reset;
#X obj 115 62 r \$0-reset;
#X obj 185 7 / 1;
#X obj 306 207 r \$0-reset;
#X obj -100 225 sphere 2 6;
#X floatatom 287 150 5 0 0 0 - - -;
#X msg 81 207 300;
#X msg 114 207 360;
#N canvas 0 22 640 556 sd 0;
#X obj 158 73 inlet;
#X obj 151 392 outlet;
#X obj 210 396 outlet;
#X msg 154 346 set \$1;
#X msg 209 346 set \$1;
#X obj 281 124 inlet;
#X obj 281 162 expr 360/$f1;
#X obj 156 117 t f f;
#X obj 153 147 + 0;
#X obj 183 148 + 1;
#X obj 164 216 * 60;
#X obj 202 216 * 60;
#X connect 0 0 7 0;
#X connect 3 0 1 0;
#X connect 4 0 2 0;
#X connect 5 0 6 0;
#X connect 6 0 10 1;
#X connect 6 0 11 1;
#X connect 7 0 8 0;
#X connect 7 1 9 0;
#X connect 8 0 10 0;
#X connect 9 0 11 0;
#X connect 10 0 3 0;
#X connect 11 0 4 0;
#X restore 222 333 pd sd;
#X obj 23 211 % 14;
#X obj 455 98 inlet;
#X msg -100 80 0;
#X obj -100 56 loadbang;
#X connect 0 0 1 0;
#X connect 1 0 9 0;
#X connect 2 0 10 0;
#X connect 3 0 25 0;
#X connect 4 0 3 0;
#X connect 5 0 19 0;
#X connect 5 0 39 0;
#X connect 6 0 11 0;
#X connect 6 1 40 0;
#X connect 7 0 18 0;
#X connect 8 0 40 1;
#X connect 11 0 12 0;
#X connect 11 0 16 0;
#X connect 12 0 15 0;
#X connect 13 0 22 0;
#X connect 14 0 45 0;
#X connect 15 0 11 1;
#X connect 16 0 47 0;
#X connect 16 1 48 0;
#X connect 17 2 36 0;
#X connect 17 3 32 0;
#X connect 17 4 9 1;
#X connect 17 5 10 1;
#X connect 18 0 6 0;
#X connect 19 0 38 0;
#X connect 20 0 0 0;
#X connect 21 0 20 1;
#X connect 22 0 23 0;
#X connect 23 0 14 0;
#X connect 24 0 43 1;
#X connect 25 0 7 0;
#X connect 25 1 30 0;
#X connect 26 0 45 0;
#X connect 27 0 29 0;
#X connect 28 0 29 1;
#X connect 29 0 28 0;
#X connect 29 0 31 0;
#X connect 30 0 41 0;
#X connect 31 0 49 0;
#X connect 32 0 50 0;
#X connect 33 0 34 0;
#X connect 34 0 20 0;
#X connect 35 0 21 0;
#X connect 36 0 27 0;
#X connect 37 0 13 0;
#X connect 38 0 7 1;
#X connect 39 0 43 0;
#X connect 40 0 8 0;
#X connect 40 0 17 0;
#X connect 42 0 11 1;
#X connect 42 0 40 1;
#X connect 43 0 35 0;
#X connect 43 0 46 0;
#X connect 44 0 29 1;
#X connect 46 0 36 1;
#X connect 46 0 50 1;
#X connect 47 0 2 0;
#X connect 48 0 2 0;
#X connect 49 0 47 0;
#X connect 49 1 48 0;
#X connect 50 0 33 0;
#X connect 51 0 49 1;
#X connect 52 0 37 0;
#X connect 53 0 52 0;
#X connect 53 0 26 0;
#X restore 322 -226 pd test_sphere;
#X obj 322 -388 bng 30 250 50 0 empty empty empty 17 7 0 10 -258113
-1 -1;
#X obj 339 -170 * 2;
#X floatatom 339 -124 5 0 0 0 - - -;
#X obj 339 -148 * 1;
#X obj 356 -260 t f f;
#N canvas 0 22 461 465 (subpatch) 0;
#X obj 102 73 inlet;
#X floatatom 102 102 2 3 30 0 - - -;
#X obj 102 125 i;
#X obj 102 197 outlet;
#X msg 200 77 10;
#X obj 201 54 loadbang;
#X connect 0 0 1 0;
#X connect 1 0 2 0;
#X connect 2 0 3 0;
#X connect 4 0 1 0;
#X connect 5 0 4 0;
#X coords 0 -1 1 1 20 20 2 100 100;
#X restore 339 -195 pd;
#N canvas 0 22 461 465 (subpatch) 0;
#X obj 102 73 inlet;
#X floatatom 102 102 2 1 30 0 - - -;
#X obj 102 125 i;
#X obj 102 197 outlet;
#X msg 47 58 6;
#X obj 47 36 loadbang;
#X obj 144 72 inlet;
#X connect 0 0 1 0;
#X connect 1 0 2 0;
#X connect 2 0 3 0;
#X connect 4 0 1 0;
#X connect 5 0 4 0;
#X connect 6 0 1 0;
#X coords 0 -1 1 1 20 20 2 100 100;
#X restore 356 -299 pd;
#N canvas 1 22 461 465 (subpatch) 0;
#X obj 102 73 inlet;
#X floatatom 102 102 2 2 30 0 - - -;
#X obj 102 125 i;
#X obj 102 197 outlet;
#X msg 200 77 6;
#X obj 200 55 loadbang;
#X obj 53 196 outlet;
#X connect 0 0 1 0;
#X connect 1 0 2 0;
#X connect 2 0 3 0;
#X connect 2 0 6 0;
#X connect 4 0 1 0;
#X connect 5 0 4 0;
#X coords 0 -1 1 1 20 20 2 100 100;
#X restore 373 -326 pd;
#X obj 322 -352 t b b b b;
#X obj 340 -76 tgl 30 0 empty empty empty 17 7 0 10 -4160 -1 -1 0 1
;
#X obj 82 -402 tgl 15 0 empty empty empty 17 7 0 10 -262144 -1 -1 0
1;
#X text 361 -194 1.first step;
#X text 375 -67 5.noise move;
#X obj 322 -411 del 1000;
#X obj -11 -425 tgl 15 0 empty empty empty 17 7 0 10 -262144 -1 -1
0 1;
#X obj 322 -446 loadbang;
#N canvas 0 22 450 300 rotate 0;
#X obj 128 -15 rotateXYZ;
#X obj 129 -78 inlet;
#X obj 120 62 outlet;
#X obj 196 -145 loadbang;
#X msg 197 -122 1;
#X obj 197 -92 tgl 15 0 empty empty empty 17 7 0 10 -262144 -1 -1 1
1;
#X obj 196 -44 f;
#X obj 225 -44 + 1;
#X obj 197 -70 metro 100;
#X obj 254 -44 % 360;
#X connect 0 0 2 0;
#X connect 1 0 0 0;
#X connect 3 0 4 0;
#X connect 4 0 5 0;
#X connect 5 0 8 0;
#X connect 6 0 7 0;
#X connect 6 0 0 2;
#X connect 6 0 0 1;
#X connect 7 0 9 0;
#X connect 8 0 6 0;
#X connect 9 0 6 1;
#X restore 43 -452 pd rotate;
#X obj 322 -261 t b;
#N canvas 561 199 450 300 color===== 0;
#X obj 38 104 f;
#X obj 66 104 + 1;
#X obj 38 131 t b f;
#X obj 38 51 bng 15 250 50 0 empty empty empty 17 7 0 10 -262144 -1
-1;
#X obj 37 214 tabwrite color;
#X obj 37 187 + 0.7;
#X obj 38 156 randomF 0.3;
#X obj 38 26 loadbang;
#X obj 38 74 repeat 3600;
#X obj 94 104 % 3600;
#X connect 0 0 1 0;
#X connect 0 0 2 0;
#X connect 1 0 9 0;
#X connect 2 0 6 0;
#X connect 2 1 4 1;
#X connect 3 0 8 0;
#X connect 5 0 4 0;
#X connect 6 0 5 0;
#X connect 7 0 3 0;
#X connect 8 0 0 0;
#X connect 9 0 0 1;
#X restore 340 -15 pd color=====;
#X text 395 -323 2.third step;
#X text 379 -295 3.display;
#X floatatom 155 -415 5 0 0 0 - - -;
#X connect 0 0 47 0;
#X connect 4 0 2 0;
#X connect 4 1 22 0;
#X connect 4 2 3 0;
#X connect 6 0 13 0;
#X connect 7 0 10 0;
#X connect 7 1 9 0;
#X connect 7 2 6 0;
#X connect 8 0 10 1;
#X connect 8 1 9 1;
#X connect 8 1 28 0;
#X connect 9 0 14 0;
#X connect 10 0 15 0;
#X connect 11 0 12 0;
#X connect 11 0 23 1;
#X connect 11 0 27 0;
#X connect 12 0 16 0;
#X connect 13 0 5 3;
#X connect 14 0 5 2;
#X connect 15 0 5 1;
#X connect 16 0 11 1;
#X connect 18 0 22 1;
#X connect 18 0 16 1;
#X connect 20 0 7 0;
#X connect 20 0 29 0;
#X connect 21 0 8 0;
#X connect 22 0 24 0;
#X connect 23 0 5 0;
#X connect 24 0 23 0;
#X connect 24 1 11 0;
#X connect 25 0 4 0;
#X connect 26 0 25 0;
#X connect 27 0 20 0;
#X connect 27 1 21 0;
#X connect 31 0 39 0;
#X connect 32 0 34 0;
#X connect 33 0 17 0;
#X connect 34 0 33 0;
#X connect 35 0 34 1;
#X connect 35 1 30 1;
#X connect 36 0 32 0;
#X connect 37 0 35 0;
#X connect 37 0 48 0;
#X connect 38 0 37 1;
#X connect 38 1 30 2;
#X connect 38 1 48 0;
#X connect 39 0 48 0;
#X connect 39 1 36 0;
#X connect 39 2 37 0;
#X connect 39 3 38 0;
#X connect 40 0 1 0;
#X connect 41 0 25 1;
#X connect 44 0 31 0;
#X connect 45 0 19 0;
#X connect 46 0 44 0;
#X connect 47 0 26 0;
#X connect 47 0 19 1;
#X connect 48 0 30 0;
#X connect 48 0 36 0;
#X connect 52 0 3 1;
