#N canvas 571 91 720 555 10;
#X obj 53 155 gemhead;
#N canvas 428 179 450 300 repeat 0;
#X obj 36 22 inlet;
#X obj 36 44 t a a;
#X obj 111 170 gemlist;
#X obj 36 227 outlet;
#X obj 111 149 until;
#X msg 111 128 30;
#X obj 36 65 route gem_state;
#X obj 36 86 route float;
#X msg 36 107 gem_state \$1;
#X connect 0 0 1 0;
#X connect 1 0 6 0;
#X connect 1 1 2 1;
#X connect 2 0 3 0;
#X connect 4 0 2 0;
#X connect 5 0 4 0;
#X connect 6 0 7 0;
#X connect 7 0 8 0;
#X connect 7 1 5 0;
#X connect 8 0 3 0;
#X restore 53 182 pd repeat 30;
#X msg 51 27 destroy;
#X obj 339 155 tgl 15 0 empty empty empty 17 7 0 10 -262144 -1 -1 0
1;
#X text 359 158 grouping or not the various primitives;
#X text 408 180 default = 0;
#X msg 353 217 triangulate \$1;
#X obj 353 200 tgl 15 0 empty empty empty 17 7 0 10 -262144 -1 -1 0
1;
#X text 462 218 triangulate quads (default = 0);
#X obj 35 59 gemwin;
#X obj 118 98 gemhead;
#X obj 118 151 world_light;
#X obj 325 241 obj_exporter;
#X obj 53 213 rotateXYZ 1 15 5;
#X obj 53 241 translateXYZ 0 0.1 0.3;
#X obj 53 271 scale 0.94;
#X msg 325 130 save e1.obj;
#X obj 120 19 k_camera;
#X obj 53 300 obj_cube 0.3;
#X msg 339 178 groupe \$1;
#N canvas 428 179 450 300 repeat 0;
#X obj 36 22 inlet;
#X obj 36 44 t a a;
#X obj 111 170 gemlist;
#X obj 36 227 outlet;
#X obj 111 149 until;
#X msg 111 128 30;
#X obj 36 65 route gem_state;
#X obj 36 86 route float;
#X msg 36 107 gem_state \$1;
#X connect 0 0 1 0;
#X connect 1 0 6 0;
#X connect 1 1 2 1;
#X connect 2 0 3 0;
#X connect 4 0 2 0;
#X connect 5 0 4 0;
#X connect 6 0 7 0;
#X connect 7 0 8 0;
#X connect 7 1 5 0;
#X connect 8 0 3 0;
#X restore 319 342 pd repeat 30;
#X obj 319 460 obj_cube 0.3;
#X obj 318 316 gemhead;
#X obj 319 373 rotateXYZ -1 -15 5;
#X obj 319 431 scale 0.95;
#X obj 319 401 translateXYZ 0 -0.05 -0.15;
#X obj 54 348 gemhead;
#X obj 54 402 obj_cube 0.58;
#X obj 54 375 translateXYZ 0.5 -0.9 0;
#X msg 35 -8 reset \, create \, lighting 1 \, 1;
#X connect 0 0 1 0;
#X connect 1 0 13 0;
#X connect 2 0 9 0;
#X connect 3 0 19 0;
#X connect 6 0 12 0;
#X connect 7 0 6 0;
#X connect 10 0 11 0;
#X connect 13 0 14 0;
#X connect 14 0 15 0;
#X connect 15 0 18 0;
#X connect 16 0 12 0;
#X connect 17 0 9 0;
#X connect 19 0 12 0;
#X connect 20 0 23 0;
#X connect 22 0 20 0;
#X connect 23 0 25 0;
#X connect 24 0 21 0;
#X connect 25 0 24 0;
#X connect 26 0 28 0;
#X connect 28 0 27 0;
#X connect 29 0 9 0;
