#N canvas 571 91 654 443 12;
#X obj 53 155 gemhead;
#N canvas 428 179 450 300 repeat 0;
#X obj 36 22 inlet;
#X obj 36 44 t a a;
#X obj 111 170 gemlist;
#X obj 36 227 outlet;
#X obj 111 149 until;
#X msg 111 128 30;
#X obj 36 65 route gem_state;
#X obj 36 86 route float;
#X msg 36 107 gem_state \$1;
#X connect 0 0 1 0;
#X connect 1 0 6 0;
#X connect 1 1 2 1;
#X connect 2 0 3 0;
#X connect 4 0 2 0;
#X connect 5 0 4 0;
#X connect 6 0 7 0;
#X connect 7 0 8 0;
#X connect 7 1 5 0;
#X connect 8 0 3 0;
#X restore 53 182 pd repeat 30;
#X msg 51 27 destroy;
#X msg 260 210 goupe \$1;
#X obj 260 187 tgl 15 0 empty empty empty 17 7 0 10 -262144 -1 -1 0
1;
#X text 280 190 grouping or not the various primitives;
#X text 329 212 default = 0;
#X msg 274 249 triangulate \$1;
#X obj 274 232 tgl 15 0 empty empty empty 17 7 0 10 -262144 -1 -1 0
1;
#X text 383 250 triangulate quads (default = 0);
#X obj 35 59 gemwin;
#X obj 118 98 gemhead;
#X obj 118 151 world_light;
#X obj 246 273 obj_exporter;
#X obj 53 213 rotateXYZ 1 15 5;
#X obj 53 241 translateXYZ 0 0.1 0.3;
#X obj 53 271 scale 0.94;
#X msg 35 -8 reset \, create \, lighting 1 \, 1;
#X msg 246 162 save e1.obj;
#X obj 120 19 k_camera;
#X obj 53 300 obj_cube 0.3;
#X connect 0 0 1 0;
#X connect 1 0 14 0;
#X connect 2 0 10 0;
#X connect 3 0 13 0;
#X connect 4 0 3 0;
#X connect 7 0 13 0;
#X connect 8 0 7 0;
#X connect 11 0 12 0;
#X connect 14 0 15 0;
#X connect 15 0 16 0;
#X connect 16 0 20 0;
#X connect 17 0 10 0;
#X connect 18 0 13 0;
#X connect 19 0 10 0;
