#N canvas 603 155 837 630 12;
#X obj 53 155 gemhead;
#X msg 67 89 destroy;
#X obj 51 121 gemwin;
#X obj 261 3 gemhead;
#X obj 261 56 world_light;
#X obj 355 551 obj_exporter;
#X msg 51 54 reset \, create \, lighting 1 \, 1;
#X msg 355 509 save e2.obj;
#N canvas 428 179 450 300 repeat 0;
#X obj 36 22 inlet;
#X obj 36 44 t a a;
#X obj 111 170 gemlist;
#X obj 36 227 outlet;
#X obj 111 149 until;
#X obj 36 65 route gem_state;
#X obj 36 86 route float;
#X msg 36 107 gem_state \$1;
#X msg 111 128 20;
#X obj 191 77 inlet;
#X connect 0 0 1 0;
#X connect 1 0 5 0;
#X connect 1 1 2 1;
#X connect 2 0 3 0;
#X connect 4 0 2 0;
#X connect 5 0 6 0;
#X connect 6 0 7 0;
#X connect 6 1 8 0;
#X connect 7 0 3 0;
#X connect 8 0 4 0;
#X connect 9 0 4 0;
#X restore 53 182 pd repeat 20;
#X obj 53 213 t a b;
#X obj 151 180 f;
#X obj 182 180 + 1;
#X obj 214 179 % 20;
#X obj 53 284 separator;
#X obj 53 372 translateXYZ;
#X obj 151 235 expr ($f1/20)*2*3.1415926;
#X obj 151 268 t f f;
#X obj 151 294 expr 2*cos($f1);
#X obj 183 319 expr 2*sin($f1);
#X obj 202 267 * 18;
#X obj 54 461 rotateXYZ 0 0 0;
#X obj 54 401 t a a a;
#X obj 54 430 separator;
#X obj 186 432 separator;
#X obj 275 402 expr -360*(1-($f1/20))+90;
#X obj 186 491 scaleXYZ 6 0.2 0.2;
#X obj 161 91 k_camera;
#X obj 361 210 gemhead 1;
#X obj 361 309 light;
#X obj 361 251 rotateXYZ 0 -60 0;
#X obj 529 207 gemhead 1;
#X obj 529 306 light;
#X obj 529 248 rotateXYZ 0 -60 0;
#X obj 529 276 translateXYZ -2 2 -1;
#X obj 361 280 translateXYZ 2 -2 1;
#X obj 151 208 t f f f f;
#X obj 54 491 obj_cube 0.3;
#X obj 209 356 expr abs(($f1/20)-0.5)*0.3+0.1;
#X obj 186 525 obj_cube 0.15;
#X obj 186 463 rotateXYZ 0 0 0;
#X connect 0 0 8 0;
#X connect 1 0 2 0;
#X connect 3 0 4 0;
#X connect 6 0 2 0;
#X connect 7 0 5 0;
#X connect 8 0 9 0;
#X connect 9 0 13 0;
#X connect 9 1 10 0;
#X connect 10 0 11 0;
#X connect 10 0 35 0;
#X connect 11 0 12 0;
#X connect 12 0 10 1;
#X connect 13 0 14 0;
#X connect 14 0 21 0;
#X connect 15 0 16 0;
#X connect 16 0 17 0;
#X connect 16 1 18 0;
#X connect 17 0 14 1;
#X connect 18 0 14 2;
#X connect 19 0 20 2;
#X connect 19 0 20 3;
#X connect 20 0 36 0;
#X connect 21 0 22 0;
#X connect 21 1 23 0;
#X connect 22 0 20 0;
#X connect 23 0 39 0;
#X connect 24 0 39 3;
#X connect 25 0 38 0;
#X connect 26 0 2 0;
#X connect 27 0 29 0;
#X connect 29 0 34 0;
#X connect 30 0 32 0;
#X connect 32 0 33 0;
#X connect 33 0 31 0;
#X connect 34 0 28 0;
#X connect 35 0 15 0;
#X connect 35 1 19 0;
#X connect 35 2 24 0;
#X connect 35 3 37 0;
#X connect 37 0 36 1;
#X connect 39 0 25 0;
