#N canvas 649 97 654 443 10;
#X msg 51 27 destroy;
#X obj 35 59 gemwin;
#X obj 120 19 k_camera;
#X obj 407 293 obj_exporter;
#X msg 407 182 save e5.obj;
#X obj 188 193 gemhead;
#X obj 190 337 gemhead;
#X obj 190 367 translateXYZ 0 -1 0;
#X obj 53 256 gemhead;
#X obj 53 299 obj_sphere 0.5 12;
#X obj 188 223 translateXYZ 0 0 0;
#X obj 190 400 obj_cube 0.2;
#X obj 188 296 obj_cube 0.05;
#X obj 188 264 scaleXYZ 1 20 1;
#X msg 35 -8 reset \, create \, lighting 1 \, 1;
#N canvas 900 362 450 300 light 0;
#X obj 54 -53 gemhead;
#X obj 54 0 world_light;
#X obj 142 -54 gemhead 1;
#X obj 142 45 light;
#X obj 142 -13 rotateXYZ 0 -60 0;
#X obj 310 -57 gemhead 1;
#X obj 310 42 light;
#X obj 310 -16 rotateXYZ 0 -60 0;
#X obj 142 16 translateXYZ 2 -2 2;
#X obj 310 12 translateXYZ -2 2 -2;
#X connect 0 0 1 0;
#X connect 2 0 4 0;
#X connect 4 0 8 0;
#X connect 5 0 7 0;
#X connect 7 0 9 0;
#X connect 8 0 3 0;
#X connect 9 0 6 0;
#X restore 246 148 pd light;
#X connect 0 0 1 0;
#X connect 2 0 1 0;
#X connect 4 0 3 0;
#X connect 5 0 10 0;
#X connect 6 0 7 0;
#X connect 7 0 11 0;
#X connect 8 0 9 0;
#X connect 10 0 13 0;
#X connect 13 0 12 0;
#X connect 14 0 1 0;
