#N canvas 458 286 671 414 10;
#X msg 79 -54 destroy;
#X obj 63 -22 gemwin;
#X msg 63 -89 reset \, create \, lighting 1 \, 1;
#X obj 165 -41 k_camera;
#N canvas 900 362 450 300 light 0;
#X obj 54 -53 gemhead;
#X obj 54 0 world_light;
#X obj 142 -54 gemhead 1;
#X obj 142 45 light;
#X obj 142 -13 rotateXYZ 0 -60 0;
#X obj 310 -57 gemhead 1;
#X obj 310 42 light;
#X obj 310 -16 rotateXYZ 0 -60 0;
#X obj 142 16 translateXYZ 2 -2 2;
#X obj 310 12 translateXYZ -2 2 -2;
#X connect 0 0 1 0;
#X connect 2 0 4 0;
#X connect 4 0 8 0;
#X connect 5 0 7 0;
#X connect 7 0 9 0;
#X connect 8 0 3 0;
#X connect 9 0 6 0;
#X restore 248 -13 pd light;
#X obj 169 224 obj_exporter;
#X obj 7 22 gemhead;
#X obj 7 107 t a b;
#X obj 51 106 f;
#X obj 80 106 + 1;
#X obj 7 159 separator;
#X obj 7 188 rotateXYZ;
#X obj 110 106 % 4;
#X obj 51 131 * 45;
#X obj 7 76 repeat 4;
#X obj 7 48 translateXYZ 0 -2 0;
#X obj 7 213 obj_square 0.5;
#X msg 169 195 save e4.obj;
#X obj 323 38 gemhead;
#X obj 323 101 t a b;
#X obj 416 125 f;
#X obj 445 125 + 1;
#X obj 323 153 separator;
#X obj 323 182 rotateXYZ;
#X obj 322 207 obj_circle 1 12;
#X obj 416 150 * 45;
#X obj 475 124 % 4;
#X obj 323 70 repeat 4;
#X connect 0 0 1 0;
#X connect 2 0 1 0;
#X connect 3 0 1 0;
#X connect 6 0 15 0;
#X connect 7 0 10 0;
#X connect 7 1 8 0;
#X connect 8 0 9 0;
#X connect 8 0 13 0;
#X connect 9 0 12 0;
#X connect 10 0 11 0;
#X connect 11 0 16 0;
#X connect 12 0 8 1;
#X connect 13 0 11 2;
#X connect 14 0 7 0;
#X connect 15 0 14 0;
#X connect 17 0 5 0;
#X connect 18 0 27 0;
#X connect 19 0 22 0;
#X connect 19 1 20 0;
#X connect 20 0 21 0;
#X connect 20 0 25 0;
#X connect 21 0 26 0;
#X connect 22 0 23 0;
#X connect 23 0 24 0;
#X connect 25 0 23 2;
#X connect 26 0 20 1;
#X connect 27 0 19 0;
