#N canvas 565 29 772 691 12;
#X obj 53 155 gemhead;
#X msg 51 27 destroy;
#X obj 35 59 gemwin;
#X obj 261 3 gemhead;
#X obj 261 56 world_light;
#X obj 431 414 obj_exporter;
#X msg 35 -8 reset \, create \, lighting 1 \, 1;
#X obj 53 213 t a b;
#X obj 160 182 f;
#X obj 191 182 + 1;
#X obj 53 284 separator;
#X obj 53 372 translateXYZ;
#X obj 52 429 separator;
#X obj 165 518 separator;
#N canvas 428 179 450 300 repeat 0;
#X obj 36 22 inlet;
#X obj 36 44 t a a;
#X obj 111 170 gemlist;
#X obj 36 227 outlet;
#X obj 111 149 until;
#X obj 36 65 route gem_state;
#X obj 36 86 route float;
#X msg 36 107 gem_state \$1;
#X obj 191 77 inlet;
#X msg 111 128 125;
#X connect 0 0 1 0;
#X connect 1 0 5 0;
#X connect 1 1 2 1;
#X connect 2 0 3 0;
#X connect 4 0 2 0;
#X connect 5 0 6 0;
#X connect 6 0 7 0;
#X connect 6 1 9 0;
#X connect 7 0 3 0;
#X connect 8 0 4 0;
#X connect 9 0 4 0;
#X restore 53 182 pd repeat 125;
#X obj 223 181 % 125;
#X obj 160 208 t f f f f;
#X obj 160 238 expr $f1%5;
#X obj 160 269 k_range 0 4 -1 1;
#X obj 180 326 k_range 0 4 1 -1;
#X obj 52 529 obj_cube 0.2;
#X obj 212 384 k_range 0 4 1 -1;
#X obj 180 294 expr int($f1/5)%5;
#X obj 212 353 expr int($f1/25);
#X obj 137 40 k_camera;
#X obj 371 170 gemhead 1;
#X obj 371 269 light;
#X obj 371 211 rotateXYZ 0 -60 0;
#X obj 131 436 distance_n;
#X obj 131 406 pack f f f;
#X obj 52 464 scale;
#X obj 539 167 gemhead 1;
#X obj 539 266 light;
#X obj 539 208 rotateXYZ 0 -60 0;
#X obj 371 240 translateXYZ 2 -2 2;
#X obj 539 236 translateXYZ -2 2 -2;
#X obj 303 515 separator;
#X obj 444 515 separator;
#X obj 52 399 t a a a a;
#X obj 165 611 obj_cube 0.07;
#X obj 303 608 obj_cube 0.07;
#X obj 444 608 obj_cube 0.07;
#X obj 166 579 scaleXYZ 3.7 0.1 0.1;
#X obj 303 576 scaleXYZ 0.1 3.7 0.1;
#X obj 444 576 scaleXYZ 0.1 0.1 3.7;
#X msg 431 372 save e3.obj;
#X obj 131 464 k_range 0 1.73 1.5 0.2;
#X obj 51 320 color 1 1 1;
#X obj 52 500 color 1 0 0;
#X connect 0 0 14 0;
#X connect 1 0 2 0;
#X connect 3 0 4 0;
#X connect 6 0 2 0;
#X connect 7 0 10 0;
#X connect 7 1 8 0;
#X connect 8 0 9 0;
#X connect 8 0 16 0;
#X connect 9 0 15 0;
#X connect 10 0 47 0;
#X connect 11 0 38 0;
#X connect 12 0 30 0;
#X connect 13 0 42 0;
#X connect 14 0 7 0;
#X connect 15 0 8 1;
#X connect 16 0 17 0;
#X connect 16 1 22 0;
#X connect 16 2 23 0;
#X connect 17 0 18 0;
#X connect 18 0 11 1;
#X connect 18 0 29 0;
#X connect 19 0 11 2;
#X connect 19 0 29 1;
#X connect 21 0 11 3;
#X connect 21 0 29 2;
#X connect 22 0 19 0;
#X connect 23 0 21 0;
#X connect 24 0 2 0;
#X connect 25 0 27 0;
#X connect 27 0 34 0;
#X connect 28 0 46 0;
#X connect 29 0 28 0;
#X connect 30 0 48 0;
#X connect 31 0 33 0;
#X connect 33 0 35 0;
#X connect 34 0 26 0;
#X connect 35 0 32 0;
#X connect 36 0 43 0;
#X connect 37 0 44 0;
#X connect 38 0 12 0;
#X connect 38 1 13 0;
#X connect 38 2 36 0;
#X connect 38 3 37 0;
#X connect 42 0 39 0;
#X connect 43 0 40 0;
#X connect 44 0 41 0;
#X connect 45 0 5 0;
#X connect 46 0 30 1;
#X connect 47 0 11 0;
#X connect 48 0 20 0;
