#N canvas 626 171 673 462 12;
#X obj 416 84 gemhead;
#X obj 50 284 gemhead 1;
#X obj 50 322 world_light;
#X obj 17 187 cnv 15 220 70 empty empty empty 20 12 0 14 -195568 -66577
0;
#N canvas 194 422 454 304 gemwin 0;
#X obj 132 148 gemwin;
#X obj 67 89 outlet;
#X obj 67 10 inlet;
#X obj 67 41 route create;
#X msg 67 70 set destroy;
#X msg 182 68 set create;
#X msg 238 112 destroy;
#N canvas 87 154 247 179 Gem.init 0;
#X obj 59 26 loadbang;
#X msg 165 79 reset;
#X obj 118 113 outlet;
#X obj 59 45 t b b;
#X obj 167 38 tgl 15 0 empty empty empty 17 7 0 10 -262144 -1 -1 0
1;
#X msg 54 75 lighting 1;
#X connect 0 0 3 0;
#X connect 1 0 2 0;
#X connect 3 0 5 0;
#X connect 3 1 1 0;
#X connect 4 0 5 0;
#X connect 5 0 2 0;
#X restore 289 80 pd Gem.init;
#X msg 132 111 color 1 1 0 \, create \, 1;
#X connect 2 0 3 0;
#X connect 3 0 4 0;
#X connect 3 0 8 0;
#X connect 3 1 5 0;
#X connect 3 1 6 0;
#X connect 4 0 1 0;
#X connect 5 0 1 0;
#X connect 6 0 0 0;
#X connect 7 0 0 0;
#X connect 8 0 0 0;
#X restore 22 231 pd gemwin;
#X msg 22 207 destroy;
#X text 18 187 Create window and render;
#X msg 544 276 group \$1;
#X obj 544 258 hradio 15 1 0 4 empty empty empty 0 -6 0 8 -262144 -1
-1 0;
#X obj 416 160 pix_texture;
#X obj 416 117 pix_image tex.jpg;
#X obj 258 110 gemhead;
#X obj 258 186 pix_texture;
#X obj 258 143 pix_image tex.jpg;
#X obj 258 223 translateXYZ 0 0 0;
#X obj 416 198 translateXYZ 0 2 0;
#X obj 258 345 sphere 0.5 20;
#X text 519 163 no uv;
#X obj 416 319 model e4.obj;
#X connect 0 0 10 0;
#X connect 1 0 2 0;
#X connect 4 0 5 0;
#X connect 5 0 4 0;
#X connect 7 0 18 0;
#X connect 8 0 7 0;
#X connect 9 0 15 0;
#X connect 10 0 9 0;
#X connect 11 0 13 0;
#X connect 12 0 14 0;
#X connect 13 0 12 0;
#X connect 14 0 16 0;
#X connect 15 0 18 0;
