#N canvas 500 69 671 729 10;
#X obj 18 24 inlet;
#X obj 18 45 t a a;
#X obj 50 108 spigot 0;
#X obj 50 436 GEMglPushMatrix;
#X obj 50 494 gemlist_info;
#X obj 103 83 r global_snap_obj;
#X obj 6 623 s global_obj_creator;
#X obj 249 66 loadbang;
#X obj 249 108 \$1;
#X obj 249 129 sel 0;
#X msg 249 151 1;
#X obj 249 173 f;
#X text 270 259 or primitive apothema for matju;
#X text 271 243 primitive size;
#X obj 249 210 s \$0-size;
#X obj 311 57 inlet;
#X obj 50 464 translateXYZ;
#X msg 119 521 v \$1 \$2 \$3;
#X obj 59 45 r \$0-size;
#X msg 90 158 g circle;
#X obj 77 240 f;
#X obj 103 240 + 1;
#X obj 113 328 t f f;
#X obj 113 366 expr cos($f1)*$f2;
#X obj 212 342 r \$0-size;
#X obj 239 372 r \$0-size;
#X obj 140 396 expr sin($f1)*$f2;
#X obj 50 551 GEMglPopMatrix;
#X obj 81 266 moses 0.1;
#X obj 132 240 % 21;
#X obj 49 193 repeat 21;
#X obj 22 163 t b a;
#X obj 49 216 t a b;
#X obj 50 131 t a b b;
#X obj 124 184 t b;
#X msg 123 204 0;
#X obj -61 269 f;
#X obj -35 269 + 1;
#X obj -42 329 + 2;
#X obj -13 328 + 3;
#X obj -61 301 t b f f;
#X obj -64 428 pack f f f;
#X msg -63 464 f \$1 \$2 \$3;
#X msg -61 354 1;
#X obj -13 359 moses 22;
#X msg 25 381 2;
#X obj -62 387 * -1;
#X obj -26 390 * -1;
#X obj 15 410 * -1;
#X obj -61 238 repeat 18;
#X obj 6 268 % 18;
#X obj 369 61 inlet;
#X obj 327 130 sel 0;
#X obj 327 174 f;
#X obj 327 211 s \$0-edge;
#X obj 166 184 r \$0-edge;
#X obj 194 249 r \$0-edge;
#X obj -11 192 r \$0-edge;
#X obj 27 303 r \$0-edge;
#X obj 327 109 \$2;
#X obj 113 307 expr ($f1/$f2)*2*3.14159;
#X msg 327 152 21;
#X obj 166 207 + 0;
#X obj 194 272 - 1;
#X obj 27 324 + 1;
#X obj -11 213 - 3;
#X floatatom 18 224 5 0 0 0 - - -;
#X obj 259 30 bng 15 250 50 0 empty empty empty 17 7 0 10 -262144 -1
-1;
#X floatatom 194 211 5 0 0 0 - - -;
#X obj -281 208 GEMglEnd;
#X obj -230 177 GEMglBegin;
#X obj -281 177 t a a a;
#X obj -262 429 GEMglVertex3f 0 0 0;
#X obj -262 265 t a b;
#X obj -235 288 f;
#X obj -204 288 + 1;
#X obj -236 340 t f f;
#X obj -279 461 outlet;
#X floatatom -154 160 5 0 0 0 - - -;
#X obj -119 132 loadbang;
#X msg -117 161 9;
#X obj -162 218 r \$0-edge;
#X floatatom -161 241 5 0 0 0 - - -;
#X obj -235 317 expr ($f1/$f2)*2 *3.1415926;
#X obj -147 335 r \$0-size;
#X obj -237 364 expr cos($f1)*$f2;
#X obj -210 389 expr sin($f1)*$f2;
#X obj -262 232 repeat 21;
#X obj -174 288 % 21;
#X connect 0 0 1 0;
#X connect 1 0 71 0;
#X connect 1 1 2 0;
#X connect 2 0 33 0;
#X connect 3 0 16 0;
#X connect 4 0 27 0;
#X connect 4 4 17 0;
#X connect 5 0 2 1;
#X connect 7 0 8 0;
#X connect 7 0 59 0;
#X connect 8 0 9 0;
#X connect 9 0 10 0;
#X connect 9 1 11 0;
#X connect 10 0 11 0;
#X connect 11 0 14 0;
#X connect 15 0 11 0;
#X connect 16 0 4 0;
#X connect 17 0 6 0;
#X connect 19 0 6 0;
#X connect 20 0 21 0;
#X connect 20 0 28 0;
#X connect 21 0 29 0;
#X connect 22 0 23 0;
#X connect 22 1 26 0;
#X connect 23 0 16 1;
#X connect 24 0 23 1;
#X connect 25 0 26 1;
#X connect 26 0 16 2;
#X connect 28 0 16 1;
#X connect 28 0 16 2;
#X connect 28 1 60 0;
#X connect 29 0 20 1;
#X connect 30 0 32 0;
#X connect 31 0 49 0;
#X connect 31 1 30 0;
#X connect 32 0 3 0;
#X connect 32 1 20 0;
#X connect 33 0 31 0;
#X connect 33 1 34 0;
#X connect 33 2 19 0;
#X connect 34 0 35 0;
#X connect 35 0 20 1;
#X connect 36 0 37 0;
#X connect 36 0 40 0;
#X connect 37 0 50 0;
#X connect 38 0 47 0;
#X connect 39 0 44 0;
#X connect 40 0 43 0;
#X connect 40 1 38 0;
#X connect 40 2 39 0;
#X connect 41 0 42 0;
#X connect 42 0 6 0;
#X connect 43 0 46 0;
#X connect 44 0 48 0;
#X connect 44 1 45 0;
#X connect 45 0 48 0;
#X connect 46 0 41 0;
#X connect 47 0 41 1;
#X connect 48 0 41 2;
#X connect 49 0 36 0;
#X connect 50 0 36 1;
#X connect 51 0 53 0;
#X connect 52 0 61 0;
#X connect 52 1 53 0;
#X connect 53 0 54 0;
#X connect 55 0 62 0;
#X connect 55 0 68 0;
#X connect 56 0 63 0;
#X connect 57 0 65 0;
#X connect 58 0 64 0;
#X connect 59 0 52 0;
#X connect 60 0 22 0;
#X connect 61 0 53 0;
#X connect 62 0 30 1;
#X connect 62 0 29 1;
#X connect 63 0 60 1;
#X connect 64 0 44 1;
#X connect 65 0 50 1;
#X connect 65 0 49 1;
#X connect 65 0 66 0;
#X connect 67 0 7 0;
#X connect 69 0 77 0;
#X connect 71 0 69 0;
#X connect 71 1 87 0;
#X connect 71 2 70 0;
#X connect 73 0 72 0;
#X connect 73 1 74 0;
#X connect 74 0 75 0;
#X connect 74 0 83 0;
#X connect 75 0 88 0;
#X connect 76 0 85 0;
#X connect 76 1 86 0;
#X connect 78 0 70 1;
#X connect 79 0 80 0;
#X connect 80 0 78 0;
#X connect 81 0 82 0;
#X connect 82 0 83 1;
#X connect 82 0 87 1;
#X connect 82 0 88 1;
#X connect 83 0 76 0;
#X connect 84 0 85 1;
#X connect 84 0 86 1;
#X connect 85 0 72 1;
#X connect 86 0 72 2;
#X connect 87 0 73 0;
#X connect 88 0 74 1;
