#N canvas 400 70 491 478 10;
#X obj 199 -72 s \$0-num;
#N canvas 749 139 719 685 test_sphere 0;
#X obj 23 336 deg2rad;
#X obj 23 363 / 2;
#X obj 113 270 deg2rad;
#X obj 59 -28 bng 15 250 50 0 empty empty empty 17 7 0 10 -262144 -1
-1;
#X obj 59 -52 inlet;
#X obj 133 -39 r \$0-num;
#X obj 59 76 t b b;
#X obj 59 31 repeat 10;
#X obj 192 121 + 1;
#X obj 81 123 f 0;
#X obj 108 123 + 1;
#X obj 135 123 % 2;
#X obj 81 181 sel 0 1;
#X obj 193 148 t f f f f f f;
#X obj 59 54 repeat 2;
#X obj 133 -16 / 2;
#X obj 23 308 * 45;
#X floatatom 185 59 5 0 0 0 - - -;
#X obj 59 -6 t b b;
#X obj 266 232 sel 0;
#X obj 293 255 + 1;
#X obj 266 255 f 0;
#X msg 317 106 0;
#X floatatom 266 278 5 0 0 0 - - -;
#X floatatom 23 188 5 0 0 0 - - -;
#X obj 23 246 / 2;
#X obj 23 269 i;
#X obj 185 35 expr 720/($f1-2);
#X obj 266 208 % 14;
#X floatatom 133 6 5 0 0 0 - - -;
#X floatatom 185 -13 5 0 0 0 - - -;
#X obj 164 124 f 0;
#X obj 317 128 s \$0-reset;
#X obj 115 62 r \$0-reset;
#X obj 185 7 / 1;
#X obj 306 207 r \$0-reset;
#X floatatom 287 150 5 0 0 0 - - -;
#X msg 81 207 270;
#X msg 114 207 360;
#N canvas 877 329 640 556 sd 0;
#X obj 158 73 inlet;
#X obj 151 392 outlet;
#X obj 210 396 outlet;
#X msg 154 346 set \$1;
#X msg 209 346 set \$1;
#X obj 281 124 inlet;
#X obj 281 162 expr 360/$f1;
#X obj 156 117 t f f;
#X obj 153 147 + 0;
#X obj 183 148 + 1;
#X obj 164 216 * 60;
#X obj 202 216 * 60;
#X connect 0 0 7 0;
#X connect 3 0 1 0;
#X connect 4 0 2 0;
#X connect 5 0 6 0;
#X connect 6 0 10 1;
#X connect 6 0 11 1;
#X connect 7 0 8 0;
#X connect 7 1 9 0;
#X connect 8 0 10 0;
#X connect 9 0 11 0;
#X connect 10 0 3 0;
#X connect 11 0 4 0;
#X restore 222 333 pd sd;
#X obj 23 211 % 14;
#X obj 213 -43 inlet;
#X obj 113 303 tabwrite \$0-phi_go;
#X obj 77 307 bng 15 250 50 0 empty empty empty 17 7 0 10 -4034 -1
-1;
#X obj 77 327 f \$0;
#X obj 23 386 tabwrite;
#X msg 77 349 set \$1-theta;
#X obj 77 284 loadbang;
#X obj 164 207 bng 15 250 50 0 empty empty empty 17 7 0 10 -4034 -1
-1;
#X obj 164 227 f \$0;
#X obj 164 184 loadbang;
#X msg 164 249 set \$1-phi;
#X connect 0 0 1 0;
#X connect 1 0 45 0;
#X connect 2 0 42 0;
#X connect 3 0 18 0;
#X connect 4 0 3 0;
#X connect 5 0 15 0;
#X connect 5 0 30 0;
#X connect 6 0 9 0;
#X connect 6 1 31 0;
#X connect 7 0 14 0;
#X connect 8 0 31 1;
#X connect 9 0 10 0;
#X connect 9 0 12 0;
#X connect 10 0 11 0;
#X connect 11 0 9 1;
#X connect 12 0 37 0;
#X connect 12 1 38 0;
#X connect 13 2 28 0;
#X connect 13 3 24 0;
#X connect 13 4 45 1;
#X connect 13 5 42 1;
#X connect 14 0 6 0;
#X connect 15 0 29 0;
#X connect 16 0 0 0;
#X connect 17 0 16 1;
#X connect 18 0 7 0;
#X connect 18 1 22 0;
#X connect 19 0 21 0;
#X connect 20 0 21 1;
#X connect 21 0 20 0;
#X connect 21 0 23 0;
#X connect 22 0 32 0;
#X connect 23 0 39 0;
#X connect 24 0 40 0;
#X connect 25 0 26 0;
#X connect 26 0 16 0;
#X connect 27 0 17 0;
#X connect 28 0 19 0;
#X connect 29 0 7 1;
#X connect 30 0 34 0;
#X connect 31 0 8 0;
#X connect 31 0 13 0;
#X connect 33 0 9 1;
#X connect 33 0 31 1;
#X connect 34 0 27 0;
#X connect 34 0 36 0;
#X connect 35 0 21 1;
#X connect 36 0 28 1;
#X connect 36 0 40 1;
#X connect 37 0 2 0;
#X connect 38 0 2 0;
#X connect 39 0 37 0;
#X connect 39 1 38 0;
#X connect 40 0 25 0;
#X connect 41 0 39 1;
#X connect 41 0 34 1;
#X connect 43 0 44 0;
#X connect 44 0 46 0;
#X connect 46 0 45 0;
#X connect 47 0 43 0;
#X connect 48 0 49 0;
#X connect 49 0 51 0;
#X connect 50 0 48 0;
#X connect 51 0 42 0;
#X restore 176 -252 pd test_sphere;
#X obj 199 -140 * 2;
#X floatatom 199 -94 5 0 0 0 - - -;
#X obj 176 -429 loadbang;
#X obj 176 -287 t b;
#X floatatom 225 -366 5 0 0 0 - - -;
#X obj 210 -315 t f f;
#X floatatom 214 -204 5 0 0 0 - - -;
#X obj 199 -177 f;
#X obj 210 -340 f;
#X obj 67 -425 inlet;
#X obj 281 -330 sel 0;
#X obj 281 -286 f;
#X obj 272 -407 \$2;
#X obj 199 -118 * 12;
#X obj 91 -344 sel 0;
#X obj 91 -300 f;
#X msg 91 -322 1;
#X obj 91 -365 \$1;
#X obj 91 -273 s \$0-size;
#X obj 176 -404 t b b b b b;
#X obj 300 -411 inlet;
#X obj -29 -342 inlet;
#X obj 176 -454 bng 15 250 50 0 empty empty empty 17 7 0 10 -262144
-1 -1;
#X obj 300 -386 moses 20;
#X msg 345 -361 20;
#X obj -29 -314 t a a;
#N canvas 475 45 927 750 vertex 0;
#X obj -160 -237 GEMglEnd;
#X obj -109 -268 GEMglBegin;
#X obj -160 -268 t a a a;
#X obj -142 80 GEMglVertex3f 0 0 0;
#X obj -36 42 expr cos($f1);
#X obj -117 -26 t f f f;
#X obj -4 -61 t f f;
#X obj -65 -25 expr sin($f1)*sin($f2);
#X obj -117 7 expr sin($f1)*cos($f2);
#X obj -78 -147 f;
#X obj -48 -146 + 1;
#X obj -62 42 * 2;
#X obj -87 42 * 2;
#X obj -117 42 * 2;
#X obj -19 -146 % 100;
#X obj -85 -245 r \$0-num;
#X obj -117 -65 tabread theta_go;
#X obj -4 -86 tabread phi_go;
#X obj -142 -213 repeat 100;
#X obj -142 -173 t a b======;
#X obj -31 -110 t f f;
#X floatatom 61 -54 5 0 0 0 - - -;
#X floatatom -91 -44 5 0 0 0 - - -;
#X floatatom -48 -305 5 0 0 0 - - -;
#X obj 44 -392 inlet;
#X obj -1 83 r \$0-size;
#X obj 125 -237 GEMglEnd;
#X obj 176 -268 GEMglBegin;
#X obj 125 -268 t a a a;
#X obj 137 169 GEMglVertex3f 0 0 0;
#X obj 168 -26 t f f f;
#X obj 281 -61 t f f;
#X obj 221 -9 expr sin($f1)*sin($f2);
#X obj 168 7 expr sin($f1)*cos($f2);
#X obj 207 -147 f;
#X obj 237 -146 + 1;
#X obj 217 131 * 2;
#X obj 192 131 * 2;
#X obj 162 131 * 2;
#X obj 266 -146 % 100;
#X obj 200 -245 r \$0-num;
#X obj 143 -213 repeat 100;
#X floatatom 346 -54 5 0 0 0 - - -;
#X floatatom 194 -44 5 0 0 0 - - -;
#X floatatom 237 -305 5 0 0 0 - - -;
#X obj 41 -358 t a a;
#X obj -98 -339 color 1 1 1;
#X obj 27 -319 separator;
#X obj 232 -353 loadbang;
#X obj -16 -284 loadbang;
#X msg -16 -261 1;
#X msg 232 -330 5;
#X obj 99 -322 separator;
#X obj 56 -239 spigot;
#X obj 76 -201 tgl 15 0 empty empty empty 17 7 0 10 -262144 -1 -1 0
1;
#X obj 132 -102 GEMglColor3f 1 1 1;
#X obj 143 -173 t a b;
#X obj 317 -167 bng 15 250 50 0 empty empty empty 17 7 0 10 -4034 -1
-1;
#X obj 317 -147 f \$0;
#X msg 317 -125 set \$1-theta;
#X obj 375 -187 bng 15 250 50 0 empty empty empty 17 7 0 10 -4034 -1
-1;
#X obj 375 -167 f \$0;
#X msg 375 -145 set \$1-phi;
#X obj 281 -86 tabread phi;
#X obj 168 -65 tabread theta;
#X obj 318 -224 loadbang;
#X obj 564 -32 expr ($f1%8);
#X obj 564 1 sel 6 7;
#X msg 564 30 2;
#X msg 596 29 1;
#X msg 601 105 1 -1;
#X obj 552 137 unpack f f;
#X obj 370 28 r \$0-size;
#X obj 368 55 v \$0-lala;
#X obj 399 84 t b f;
#X obj 397 113 *;
#X obj 434 35 r \$0-size;
#X obj 463 91 t b f;
#X obj 461 120 *;
#X obj 432 62 v \$0-la;
#X floatatom 334 131 5 0 0 0 - - -;
#X floatatom 446 159 5 0 0 0 - - -;
#X obj 254 -110 t f f f;
#X obj 572 59 sel 2 1;
#X msg 563 95 1 -1;
#X obj 238 80 r \$0-size;
#X obj 220 40 expr cos($f1);
#X connect 2 0 0 0;
#X connect 2 1 18 0;
#X connect 2 2 1 0;
#X connect 4 0 11 0;
#X connect 5 0 8 0;
#X connect 5 1 7 0;
#X connect 5 2 4 0;
#X connect 6 0 8 1;
#X connect 6 1 7 1;
#X connect 6 1 21 0;
#X connect 7 0 12 0;
#X connect 8 0 13 0;
#X connect 9 0 10 0;
#X connect 9 0 20 0;
#X connect 10 0 14 0;
#X connect 11 0 3 3;
#X connect 12 0 3 2;
#X connect 13 0 3 1;
#X connect 14 0 9 1;
#X connect 15 0 18 1;
#X connect 15 0 14 1;
#X connect 16 0 5 0;
#X connect 16 0 22 0;
#X connect 17 0 6 0;
#X connect 18 0 19 0;
#X connect 19 0 3 0;
#X connect 19 1 9 0;
#X connect 20 0 16 0;
#X connect 20 1 17 0;
#X connect 23 0 1 1;
#X connect 24 0 45 0;
#X connect 25 0 13 1;
#X connect 25 0 12 1;
#X connect 25 0 11 1;
#X connect 28 0 26 0;
#X connect 28 1 41 0;
#X connect 28 2 27 0;
#X connect 30 0 33 0;
#X connect 30 1 32 0;
#X connect 30 2 86 0;
#X connect 31 0 33 1;
#X connect 31 1 32 1;
#X connect 31 1 42 0;
#X connect 32 0 37 0;
#X connect 33 0 38 0;
#X connect 34 0 35 0;
#X connect 34 0 82 0;
#X connect 35 0 39 0;
#X connect 36 0 29 3;
#X connect 37 0 29 2;
#X connect 38 0 29 1;
#X connect 39 0 34 1;
#X connect 40 0 41 1;
#X connect 40 0 39 1;
#X connect 41 0 56 0;
#X connect 44 0 27 1;
#X connect 45 0 53 0;
#X connect 45 1 52 0;
#X connect 46 0 2 0;
#X connect 48 0 51 0;
#X connect 49 0 50 0;
#X connect 50 0 23 0;
#X connect 51 0 44 0;
#X connect 52 0 28 0;
#X connect 53 0 47 0;
#X connect 54 0 53 1;
#X connect 55 0 29 0;
#X connect 56 0 55 0;
#X connect 56 1 34 0;
#X connect 57 0 58 0;
#X connect 58 0 59 0;
#X connect 59 0 64 0;
#X connect 60 0 61 0;
#X connect 61 0 62 0;
#X connect 62 0 63 0;
#X connect 63 0 31 0;
#X connect 64 0 30 0;
#X connect 64 0 43 0;
#X connect 65 0 57 0;
#X connect 65 0 60 0;
#X connect 66 0 67 0;
#X connect 67 0 68 0;
#X connect 67 1 68 0;
#X connect 67 2 69 0;
#X connect 68 0 83 0;
#X connect 69 0 83 0;
#X connect 70 0 71 0;
#X connect 71 0 74 0;
#X connect 71 1 77 0;
#X connect 72 0 73 0;
#X connect 73 0 75 0;
#X connect 74 0 73 0;
#X connect 74 1 75 1;
#X connect 75 0 80 0;
#X connect 76 0 79 0;
#X connect 77 0 79 0;
#X connect 77 1 78 1;
#X connect 78 0 81 0;
#X connect 79 0 78 0;
#X connect 82 0 64 0;
#X connect 82 1 63 0;
#X connect 83 0 84 0;
#X connect 83 1 70 0;
#X connect 84 0 71 0;
#X connect 85 0 38 1;
#X connect 85 0 37 1;
#X connect 85 0 36 1;
#X connect 86 0 36 0;
#X restore -32 -241 pd vertex;
#N canvas 0 22 1440 785 add-obj 0;
#X obj -66 2 spigot 0;
#X obj -13 -23 r global_snap_obj;
#X obj 10 645 s global_obj_creator;
#X msg 118 549 v \$1 \$2 \$3;
#X obj 24 141 f;
#X obj 50 141 + 1;
#X obj -299 28 t b a;
#X obj -67 110 t a b;
#X obj -66 25 t a b b;
#X obj 8 78 t b;
#X msg 7 98 0;
#X obj 24 257 t f f f;
#X obj 153 192 t f f;
#X obj 76 249 expr sin($f1)*sin($f2);
#X obj 24 290 expr sin($f1)*cos($f2);
#X floatatom 205 230 5 0 0 0 - - -;
#X floatatom 24 218 5 0 0 0 - - -;
#X obj 24 316 * 1;
#X obj 52 316 * 1;
#X msg -27 48 g sphere;
#X obj 43 8 r \$0-num;
#X obj -67 87 repeat 100;
#X obj 79 141 % 100;
#X obj -66 -50 inlet;
#X obj -392 146 f;
#X obj -364 146 + 1;
#X obj -695 172 t b f;
#X obj -695 195 repeat 5;
#X obj -637 150 r edge;
#X obj -637 171 expr ($f1-1)*2;
#X obj -695 243 + 1;
#X floatatom -695 265 5 0 0 0 - - -;
#X obj -695 219 f;
#X obj -640 219 % 10;
#X obj -668 219 + 1;
#X floatatom -637 195 5 0 0 0 - - -;
#X obj -695 293 expr ($f2*12)+$f1;
#X floatatom -341 89 5 0 0 0 - - -;
#X floatatom -256 151 5 0 0 0 - - -;
#X obj -391 84 bng 15 250 50 0 empty empty empty 17 7 0 10 -262144
-1 -1;
#X obj -350 229 f;
#X obj -322 229 + 1;
#X obj -305 176 - 1;
#X obj -350 265 sel 0;
#X obj -323 291 sel 0;
#X obj -252 236 - 2;
#X floatatom -252 259 5 0 0 0 - - -;
#X obj -498 46 s edge;
#X msg -498 20 6;
#X obj -545 273 t b b b;
#X obj -392 180 t f b f;
#X obj -545 346 +;
#X obj -526 367 +;
#X obj -506 388 +;
#X obj -546 496 pack f f f;
#X msg -546 522 f \$1 \$2 \$3;
#X obj -546 547 s global_obj_creator;
#X obj -381 309 t b b b;
#X obj -381 505 +;
#X obj -362 526 +;
#X obj -342 547 +;
#X obj -381 611 pack f f f;
#X obj -381 662 s global_obj_creator;
#X obj -381 404 +;
#X obj -362 419 +;
#X obj -334 419 +;
#X obj -252 289 * 2;
#X obj -215 318 t b b b b f;
#X obj -114 360 * 2;
#X obj -233 416 +;
#X obj -207 416 +;
#X obj -179 416 +;
#X obj -153 415 +;
#X obj -224 572 pack f f f f;
#X obj -213 662 s global_obj_creator;
#X obj -350 203 repeat 5;
#X obj -293 228 % 5;
#X msg -381 335 1;
#X msg -362 357 2;
#X msg -342 379 3;
#X msg -218 345 1;
#X msg -199 367 2;
#X msg -179 389 4;
#X msg -160 364 3;
#X obj -230 469 +;
#X obj -204 469 +;
#X obj -176 469 +;
#X obj -150 468 +;
#X obj -392 120 repeat 6;
#X obj -335 145 % 6;
#X obj -312 461 * 2;
#X obj -433 467 expr $f1*$f2;
#X obj -448 349 * 2;
#X obj -490 302 expr $f1*$f2;
#X obj -41 392 * 2;
#X obj -108 432 expr $f1*$f2;
#X obj -229 519 * -1;
#X obj -198 519 * -1;
#X obj -156 519 * -1;
#X obj -120 518 * -1;
#X obj -546 457 * -1;
#X obj -512 458 * -1;
#X obj -472 456 * -1;
#X obj -380 572 * -1;
#X obj -346 573 * -1;
#X obj -306 571 * -1;
#X obj -119 277 GEMglPushMatrix;
#X obj 49 577 GEMglPopMatrix;
#X obj 49 523 gemlist_info;
#X obj 49 502 translateXYZ;
#X msg -545 299 2;
#X msg -526 321 3;
#X msg -506 343 4;
#X obj 126 92 bng 15 250 50 0 empty empty empty 17 7 0 10 -4034 -1
-1;
#X obj 126 112 f \$0;
#X msg 126 134 set \$1-theta;
#X obj 184 72 bng 15 250 50 0 empty empty empty 17 7 0 10 -4034 -1
-1;
#X obj 184 92 f \$0;
#X obj 153 167 tabread phi;
#X obj 24 192 tabread theta;
#X msg 184 114 set \$1-phi;
#X obj 135 44 loadbang;
#X obj 24 168 t f f f;
#X msg 514 433 1 -1;
#X obj 465 465 unpack f f;
#X obj 321 279 r \$0-size;
#X obj 319 306 v \$0-lala;
#X obj 350 335 t b f;
#X obj 348 364 *;
#X obj 385 286 r \$0-size;
#X obj 414 342 t b f;
#X obj 412 371 *;
#X obj 383 313 v \$0-la;
#X obj 379 262 bng 15 250 50 0 empty empty empty 17 7 0 10 -262144
-1 -1;
#X obj 441 320 bng 15 250 50 0 empty empty empty 17 7 0 10 -262144
-1 -1;
#X floatatom 345 390 5 0 0 0 - - -;
#X floatatom 397 410 5 0 0 0 - - -;
#X obj 477 393 sel 2 1;
#X obj 477 296 expr if(($f1%8)>=5 \, 2 \, 1);
#X msg 476 423 1 -1;
#X obj 145 380 r \$0-size;
#X obj 130 467 * 1;
#X obj -341 64 r \$0-edge;
#X obj -305 150 r \$0-edge;
#X obj -252 215 r \$0-edge;
#X obj -310 438 r \$0-edge;
#X obj -446 326 r \$0-edge;
#X obj -39 369 r \$0-edge;
#X obj 130 438 expr cos($f1);
#X msg -381 637 f \$3 \$2 \$1;
#X msg -213 603 f \$4 \$3 \$2 \$1;
#X connect 0 0 8 0;
#X connect 1 0 0 1;
#X connect 3 0 2 0;
#X connect 4 0 5 0;
#X connect 4 0 122 0;
#X connect 5 0 22 0;
#X connect 6 0 88 0;
#X connect 6 1 21 0;
#X connect 7 0 106 0;
#X connect 7 1 4 0;
#X connect 8 0 6 0;
#X connect 8 1 9 0;
#X connect 8 2 19 0;
#X connect 9 0 10 0;
#X connect 10 0 4 1;
#X connect 11 0 14 0;
#X connect 11 1 13 0;
#X connect 11 2 148 0;
#X connect 12 0 14 1;
#X connect 12 1 15 0;
#X connect 13 0 18 0;
#X connect 14 0 17 0;
#X connect 15 0 13 1;
#X connect 16 0 11 0;
#X connect 17 0 109 1;
#X connect 18 0 109 2;
#X connect 19 0 2 0;
#X connect 20 0 21 1;
#X connect 20 0 22 1;
#X connect 21 0 7 0;
#X connect 22 0 4 1;
#X connect 23 0 0 0;
#X connect 24 0 25 0;
#X connect 24 0 50 0;
#X connect 25 0 89 0;
#X connect 26 0 27 0;
#X connect 27 0 32 0;
#X connect 28 0 29 0;
#X connect 29 0 35 0;
#X connect 30 0 31 0;
#X connect 31 0 36 0;
#X connect 32 0 30 0;
#X connect 32 0 34 0;
#X connect 33 0 32 1;
#X connect 34 0 33 0;
#X connect 35 0 27 1;
#X connect 37 0 88 1;
#X connect 37 0 89 1;
#X connect 39 0 88 0;
#X connect 40 0 41 0;
#X connect 40 0 43 0;
#X connect 41 0 76 0;
#X connect 42 0 75 1;
#X connect 42 0 76 1;
#X connect 43 0 49 0;
#X connect 43 1 44 0;
#X connect 44 0 57 0;
#X connect 44 1 67 0;
#X connect 45 0 46 0;
#X connect 46 0 44 1;
#X connect 46 0 66 0;
#X connect 48 0 47 0;
#X connect 49 0 110 0;
#X connect 49 1 111 0;
#X connect 49 2 112 0;
#X connect 50 1 75 0;
#X connect 50 2 91 0;
#X connect 50 2 93 0;
#X connect 50 2 95 0;
#X connect 51 0 100 0;
#X connect 52 0 101 0;
#X connect 53 0 102 0;
#X connect 54 0 55 0;
#X connect 55 0 56 0;
#X connect 57 0 77 0;
#X connect 57 1 78 0;
#X connect 57 2 79 0;
#X connect 58 0 103 0;
#X connect 59 0 104 0;
#X connect 60 0 105 0;
#X connect 61 0 149 0;
#X connect 63 0 58 0;
#X connect 64 0 59 0;
#X connect 65 0 60 0;
#X connect 66 0 63 1;
#X connect 66 0 64 1;
#X connect 66 0 65 1;
#X connect 67 0 80 0;
#X connect 67 1 81 0;
#X connect 67 2 82 0;
#X connect 67 3 83 0;
#X connect 67 4 68 0;
#X connect 68 0 69 1;
#X connect 68 0 70 1;
#X connect 68 0 71 1;
#X connect 68 0 72 1;
#X connect 69 0 84 0;
#X connect 70 0 85 0;
#X connect 71 0 86 0;
#X connect 72 0 87 0;
#X connect 73 0 150 0;
#X connect 75 0 40 0;
#X connect 76 0 40 1;
#X connect 77 0 63 0;
#X connect 78 0 64 0;
#X connect 79 0 65 0;
#X connect 80 0 69 0;
#X connect 81 0 70 0;
#X connect 82 0 71 0;
#X connect 83 0 72 0;
#X connect 84 0 96 0;
#X connect 85 0 97 0;
#X connect 86 0 98 0;
#X connect 87 0 99 0;
#X connect 88 0 24 0;
#X connect 89 0 24 1;
#X connect 90 0 91 1;
#X connect 91 0 58 1;
#X connect 91 0 59 1;
#X connect 91 0 60 1;
#X connect 92 0 93 1;
#X connect 93 0 51 1;
#X connect 93 0 52 1;
#X connect 93 0 53 1;
#X connect 94 0 95 1;
#X connect 95 0 87 1;
#X connect 95 0 86 1;
#X connect 95 0 85 1;
#X connect 95 0 84 1;
#X connect 96 0 73 0;
#X connect 97 0 73 1;
#X connect 98 0 73 2;
#X connect 99 0 73 3;
#X connect 100 0 54 0;
#X connect 101 0 54 1;
#X connect 102 0 54 2;
#X connect 103 0 61 0;
#X connect 104 0 61 1;
#X connect 105 0 61 2;
#X connect 106 0 109 0;
#X connect 108 0 107 0;
#X connect 108 4 3 0;
#X connect 109 0 108 0;
#X connect 110 0 51 0;
#X connect 111 0 52 0;
#X connect 112 0 53 0;
#X connect 113 0 114 0;
#X connect 114 0 115 0;
#X connect 115 0 119 0;
#X connect 116 0 117 0;
#X connect 117 0 120 0;
#X connect 118 0 12 0;
#X connect 119 0 16 0;
#X connect 120 0 118 0;
#X connect 121 0 113 0;
#X connect 121 0 116 0;
#X connect 122 0 119 0;
#X connect 122 1 118 0;
#X connect 123 0 124 0;
#X connect 124 0 127 0;
#X connect 124 1 130 0;
#X connect 125 0 126 0;
#X connect 126 0 128 0;
#X connect 127 0 126 0;
#X connect 127 1 128 1;
#X connect 128 0 135 0;
#X connect 129 0 132 0;
#X connect 130 0 132 0;
#X connect 130 1 131 1;
#X connect 131 0 136 0;
#X connect 132 0 131 0;
#X connect 133 0 126 0;
#X connect 134 0 132 0;
#X connect 137 0 139 0;
#X connect 137 1 123 0;
#X connect 138 0 137 0;
#X connect 139 0 124 0;
#X connect 140 0 17 1;
#X connect 140 0 18 1;
#X connect 140 0 141 1;
#X connect 141 0 109 3;
#X connect 142 0 37 0;
#X connect 143 0 42 0;
#X connect 144 0 45 0;
#X connect 145 0 90 0;
#X connect 146 0 92 0;
#X connect 147 0 94 0;
#X connect 148 0 141 0;
#X connect 149 0 62 0;
#X connect 150 0 74 0;
#X restore -2 -279 pd add-obj;
#N canvas 603 382 668 425 show 0;
#X obj 64 -2061 gemhead;
#X obj 64 -1994 color 1 0 0;
#X obj 64 -2023 translateXYZ;
#X obj 139 -2167 t f f f;
#X obj 252 -2202 t f f;
#X obj 191 -2166 expr sin($f1)*sin($f2);
#X obj 139 -2134 expr sin($f1)*cos($f2);
#X obj 139 -2206 tabread theta_go;
#X obj 252 -2227 tabread phi_go;
#X obj 225 -2251 t f f;
#X floatatom 317 -2195 5 0 0 0 - - -;
#X floatatom 165 -2185 5 0 0 0 - - -;
#X obj 141 -2074 * 1;
#X obj 171 -2065 * 1;
#X obj 219 -2028 * 1;
#X obj 227 -2093 r \$0-size;
#X floatatom 223 -2279 5 0 0 0 - - -;
#X obj 64 -1965 sphere 0.1;
#X obj 292 -2315 bng 15 250 50 0 empty empty empty 17 7 0 10 -4034
-1 -1;
#X obj 292 -2295 f \$0;
#X msg 292 -2273 set \$1-theta;
#X obj 350 -2335 bng 15 250 50 0 empty empty empty 17 7 0 10 -4034
-1 -1;
#X obj 350 -2315 f \$0;
#X msg 350 -2293 set \$1-phi;
#X obj 301 -2363 loadbang;
#X obj 191 -2110 expr cos($f1)*-1;
#X floatatom 228 -1986 10 0 0 0 - - -;
#X floatatom 177 -1995 5 0 0 0 - - -;
#X floatatom 144 -2037 10 0 0 0 - - -;
#X obj 164 -2269 + 1;
#X floatatom 164 -2245 5 0 0 0 - - -;
#X connect 0 0 2 0;
#X connect 1 0 17 0;
#X connect 2 0 1 0;
#X connect 3 0 6 0;
#X connect 3 1 5 0;
#X connect 3 2 25 0;
#X connect 4 0 6 1;
#X connect 4 1 10 0;
#X connect 5 0 13 0;
#X connect 6 0 12 0;
#X connect 7 0 3 0;
#X connect 7 0 11 0;
#X connect 8 0 4 0;
#X connect 9 0 7 0;
#X connect 9 1 8 0;
#X connect 10 0 5 1;
#X connect 12 0 2 1;
#X connect 12 0 28 0;
#X connect 13 0 2 2;
#X connect 13 0 27 0;
#X connect 14 0 2 3;
#X connect 14 0 26 0;
#X connect 15 0 14 1;
#X connect 15 0 13 1;
#X connect 15 0 12 1;
#X connect 16 0 9 0;
#X connect 16 0 29 0;
#X connect 18 0 19 0;
#X connect 19 0 20 0;
#X connect 20 0 7 0;
#X connect 21 0 22 0;
#X connect 22 0 23 0;
#X connect 23 0 8 0;
#X connect 24 0 18 0;
#X connect 24 0 21 0;
#X connect 25 0 14 0;
#X connect 29 0 30 0;
#X restore 33 -240 pd show;
#X msg 281 -308 8;
#X obj -49 -158 table \$0-phi 1800;
#X obj -49 -180 table \$0-theta 1800;
#X obj 267 -159 s \$0-edge;
#X connect 2 0 15 0;
#X connect 3 0 0 0;
#X connect 4 0 21 0;
#X connect 5 0 1 0;
#X connect 6 0 10 1;
#X connect 7 0 15 1;
#X connect 7 1 1 1;
#X connect 8 0 9 1;
#X connect 8 0 34 0;
#X connect 9 0 2 0;
#X connect 10 0 7 0;
#X connect 11 0 17 0;
#X connect 12 0 31 0;
#X connect 12 1 13 0;
#X connect 13 0 6 0;
#X connect 13 0 8 0;
#X connect 14 0 25 0;
#X connect 15 0 3 0;
#X connect 16 0 18 0;
#X connect 16 1 17 0;
#X connect 17 0 20 0;
#X connect 18 0 17 0;
#X connect 19 0 16 0;
#X connect 21 0 5 0;
#X connect 21 1 9 0;
#X connect 21 2 10 0;
#X connect 21 4 19 0;
#X connect 21 4 14 0;
#X connect 22 0 25 0;
#X connect 23 0 27 0;
#X connect 24 0 4 0;
#X connect 25 0 12 0;
#X connect 25 1 26 0;
#X connect 26 0 12 0;
#X connect 27 0 28 0;
#X connect 27 1 29 0;
#X connect 31 0 13 0;
